<svg xmlns="http://www.w3.org/2000/svg" width="286" height="124" viewBox="0 0 286 124">
    <g fill="none" fill-rule="evenodd">
        <g fill="#FFF">
            <g>
                <path fill-rule="nonzero" d="M11.611 112.882c2 0 4.002-.522 6.003-1.567v-6.551c-1.183 1.44-2.213 2.411-3.09 2.912-.905.514-1.95.772-3.132.772-1.855 0-3.381-.647-4.579-1.942-1.183-1.294-1.774-2.948-1.774-4.963 0-1.97.613-3.61 1.84-4.92 1.227-1.309 2.768-1.963 4.622-1.963 1.183 0 2.213.265 3.09.794.89.515 1.898 1.464 3.023 2.846v-6.596c-1.87-1.015-3.856-1.522-5.96-1.522-3.27 0-6.031 1.103-8.28 3.309C1.124 95.697 0 98.403 0 101.609c0 3.206 1.11 5.89 3.33 8.052 2.22 2.147 4.98 3.22 8.281 3.22zm24.258 0c3.228 0 5.951-1.081 8.171-3.243 2.206-2.177 3.308-4.875 3.308-8.096 0-3.192-1.095-5.883-3.286-8.074-2.22-2.192-4.922-3.287-8.105-3.287-3.17 0-5.857 1.088-8.062 3.265-2.206 2.176-3.308 4.816-3.308 7.92 0 3.294 1.08 6.03 3.242 8.206 2.161 2.206 4.841 3.309 8.04 3.309zm.088-4.434c-1.914 0-3.455-.633-4.623-1.898-1.14-1.25-1.709-2.948-1.709-5.095 0-2 .584-3.633 1.753-4.898 1.168-1.265 2.695-1.897 4.579-1.897 1.913 0 3.454.632 4.622 1.897 1.154 1.25 1.73 2.92 1.73 5.008s-.576 3.757-1.73 5.007c-1.154 1.25-2.695 1.876-4.622 1.876zm24.761 3.816v-10.368c0-2.677.336-4.552 1.008-5.626.687-1.088 1.848-1.632 3.483-1.632 1.505 0 2.542.412 3.111 1.235.584.81.877 2.273.877 4.39v12.001h4.95v-13.17c0-3.03-.598-5.213-1.796-6.552-1.387-1.573-3.322-2.36-5.805-2.36-2.162 0-4.104.86-5.828 2.58v-1.985h-4.95v21.487h4.95zm30.305 1.478l11.085-22.965h-5.543l-5.498 12.067-5.521-12.067h-5.52l10.997 22.965zm26.405-.86c1.11 0 2.14-.118 3.089-.353.949-.236 1.833-.607 2.65-1.114.818-.508 1.585-1.155 2.3-1.942.716-.786 1.395-1.731 2.038-2.834l-4.162-2.339c-1.008 1.589-1.906 2.677-2.695 3.265-.803.588-1.818.883-3.045.883-1.577 0-2.87-.515-3.878-1.545-1.007-1.044-1.577-2.448-1.709-4.213h15.292l.022-1.17c0-3.544-.906-6.316-2.717-8.316-1.825-2.015-4.308-3.022-7.448-3.022-3.111 0-5.609 1.037-7.493 3.11-1.87 2.103-2.804 4.854-2.804 8.25 0 3.427.964 6.178 2.892 8.251 1.928 2.06 4.484 3.089 7.668 3.089zm4.82-14.251h-9.903c.16-.618.394-1.17.701-1.655.307-.485.676-.9 1.106-1.246.431-.346.91-.61 1.435-.794.526-.184 1.088-.276 1.687-.276 2.63 0 4.287 1.324 4.973 3.97zm18.583 13.633v-11.14c0-4.089 1.344-6.133 4.031-6.133.891 0 1.804.338 2.739 1.015l2.256-4.545c-1.417-.853-2.775-1.28-4.075-1.28-.978 0-1.825.185-2.541.552-.701.353-1.504 1.008-2.41 1.964v-1.92h-4.929v21.487h4.93zM166.141 124c3.373 0 6.024-1.118 7.952-3.353 1.022-1.162 1.709-2.552 2.06-4.17.116-.588.208-1.268.273-2.04.066-.772.099-1.666.099-2.68v-20.98h-4.93v2.427c-1.781-2.015-4.016-3.022-6.703-3.022-3.067 0-5.535 1.162-7.405 3.485-1.738 2.192-2.607 4.854-2.607 7.986 0 3.22.935 5.905 2.804 8.052 1.855 2.118 4.236 3.177 7.142 3.177 2.556 0 4.813-1.008 6.77-3.023v3c0 4.457-1.804 6.685-5.412 6.685-1.957 0-3.446-.67-4.469-2.008-.438-.573-.752-1.39-.942-2.448h-4.95c.291 2.809 1.387 5.007 3.285 6.596 1.84 1.544 4.185 2.316 7.033 2.316zm-.329-15.552c-1.884 0-3.36-.684-4.425-2.052-.979-1.25-1.468-2.853-1.468-4.81 0-1.985.49-3.602 1.468-4.852 1.08-1.397 2.556-2.096 4.425-2.096 1.753 0 3.191.64 4.316 1.92 1.11 1.25 1.665 2.918 1.665 5.007 0 1.956-.504 3.559-1.512 4.809-1.095 1.382-2.585 2.074-4.469 2.074zm29.691 4.434c1.11 0 2.14-.118 3.089-.353.95-.236 1.833-.607 2.65-1.114.819-.508 1.585-1.155 2.301-1.942.716-.786 1.395-1.731 2.037-2.834l-4.162-2.339c-1.008 1.589-1.906 2.677-2.695 3.265-.803.588-1.818.883-3.045.883-1.577 0-2.87-.515-3.877-1.545-1.008-1.044-1.578-2.448-1.71-4.213h15.292l.022-1.17c0-3.544-.905-6.316-2.716-8.316-1.826-2.015-4.309-3.022-7.449-3.022-3.11 0-5.608 1.037-7.492 3.11-1.87 2.103-2.804 4.854-2.804 8.25 0 3.427.964 6.178 2.891 8.251 1.928 2.06 4.484 3.089 7.668 3.089zm4.82-14.251h-9.903c.161-.618.395-1.17.702-1.655.306-.485.675-.9 1.106-1.246.43-.346.909-.61 1.435-.794.526-.184 1.088-.276 1.687-.276 2.629 0 4.286 1.324 4.973 3.97zm18.605 13.633v-10.368c0-2.677.336-4.552 1.008-5.626.687-1.088 1.848-1.632 3.484-1.632 1.504 0 2.54.412 3.11 1.235.585.81.877 2.273.877 4.39v12.001h4.95v-13.17c0-3.03-.598-5.213-1.796-6.552-1.387-1.573-3.322-2.36-5.805-2.36-2.162 0-4.104.86-5.828 2.58v-1.985h-4.95v21.487h4.95zm33.46.618c2 0 4.001-.522 6.002-1.567v-6.551c-1.183 1.44-2.212 2.411-3.089 2.912-.905.514-1.95.772-3.133.772-1.854 0-3.38-.647-4.578-1.942-1.183-1.294-1.775-2.948-1.775-4.963 0-1.97.614-3.61 1.84-4.92 1.227-1.309 2.768-1.963 4.623-1.963 1.183 0 2.213.265 3.089.794.89.515 1.899 1.464 3.023 2.846v-6.596c-1.87-1.015-3.856-1.522-5.959-1.522-3.271 0-6.032 1.103-8.28 3.309-2.25 2.206-3.374 4.912-3.374 8.118 0 3.206 1.11 5.89 3.33 8.052 2.22 2.147 4.98 3.22 8.28 3.22zm23.535 0c1.11 0 2.14-.118 3.088-.353.95-.236 1.833-.607 2.651-1.114.818-.508 1.585-1.155 2.3-1.942.716-.786 1.395-1.731 2.038-2.834l-4.162-2.339c-1.008 1.589-1.906 2.677-2.695 3.265-.803.588-1.818.883-3.045.883-1.578 0-2.87-.515-3.878-1.545-1.008-1.044-1.577-2.448-1.709-4.213h15.292l.022-1.17c0-3.544-.906-6.316-2.717-8.316-1.825-2.015-4.308-3.022-7.448-3.022-3.111 0-5.609 1.037-7.493 3.11-1.87 2.103-2.804 4.854-2.804 8.25 0 3.427.964 6.178 2.892 8.251 1.928 2.06 4.484 3.089 7.668 3.089zm4.82-14.251h-9.903c.16-.618.394-1.17.701-1.655.307-.485.675-.9 1.106-1.246.431-.346.91-.61 1.435-.794.526-.184 1.088-.276 1.687-.276 2.63 0 4.287 1.324 4.973 3.97z" transform="translate(-577 -189) translate(577 189)"/>
                <g>
                    <path d="M36.031 0c9.927 0 18.915 4.018 25.432 10.519l-9.554 9.565c-4.072-4.052-9.683-6.557-15.878-6.557-12.437 0-22.52 10.094-22.52 22.546 0 12.451 10.083 22.545 22.52 22.545 6.195 0 11.805-2.504 15.877-6.556l9.555 9.565c-6.517 6.5-15.505 10.518-25.432 10.518C16.131 72.145 0 55.995 0 36.073 0 16.15 16.132 0 36.031 0z" transform="translate(-577 -189) translate(577 189) translate(108.094)"/>
                    <path fill-rule="nonzero" d="M66.835 17.348c3.317 5.459 5.228 11.868 5.228 18.725 0 6.856-1.91 13.266-5.229 18.725L48.13 36.073z" transform="translate(-577 -189) translate(577 189) translate(108.094)"/>
                </g>
            </g>
        </g>
    </g>
</svg>
